<svg width="100" height="51" viewBox="0 0 100 51" fill="none" xmlns="http://www.w3.org/2000/svg">
<path d="M35.0365 27.3161V32.9423H29.0267V49.9488H21.93V32.9423H15.9841V27.3161H35.0365Z" fill="#F2F2F2"/>
<path d="M47.9899 50.1726C45.8588 50.1726 43.8981 49.6717 42.108 48.6701C40.3391 47.6685 38.9326 46.2832 37.8883 44.5144C36.8441 42.7455 36.3219 40.7529 36.3219 38.5365C36.3219 36.3202 36.8441 34.3275 37.8883 32.5587C38.9326 30.7899 40.3391 29.4153 42.108 28.4349C43.8981 27.4333 45.8588 26.9325 47.9899 26.9325C50.1211 26.9325 52.071 27.4333 53.8399 28.4349C55.6087 29.4153 57.0046 30.7899 58.0276 32.5587C59.0718 34.3275 59.594 36.3202 59.594 38.5365C59.594 40.7529 59.0718 42.7455 58.0276 44.5144C57.0046 46.2832 55.5981 47.6685 53.8079 48.6701C52.0391 49.6717 50.0997 50.1726 47.9899 50.1726ZM47.9899 43.5554C49.3965 43.5554 50.4833 43.1078 51.2506 42.2128C52.0178 41.2964 52.4014 40.071 52.4014 38.5365C52.4014 36.9808 52.0178 35.7554 51.2506 34.8603C50.4833 33.9439 49.3965 33.4857 47.9899 33.4857C46.562 33.4857 45.4645 33.9439 44.6973 34.8603C43.9301 35.7554 43.5465 36.9808 43.5465 38.5365C43.5465 40.071 43.9301 41.2964 44.6973 42.2128C45.4645 43.1078 46.562 43.5554 47.9899 43.5554Z" fill="#F2F2F2"/>
<path d="M83.8597 49.9488H76.763L69.2508 38.5685V49.9488H62.1541V27.3161H69.2508L76.763 38.8882V27.3161H83.8597V49.9488Z" fill="#F2F2F2"/>
<path d="M15.1524 11.1225C16.5163 11.4422 17.5712 12.1028 18.3171 13.1045C19.0843 14.0848 19.4679 15.225 19.4679 16.5249C19.4679 18.5069 18.8073 20.0413 17.486 21.1282C16.186 22.1938 14.3106 22.7266 11.8598 22.7266H0V0.0938721H11.5401C13.8417 0.0938721 15.6532 0.594689 16.9745 1.59632C18.2958 2.59796 18.9565 4.05779 18.9565 5.97581C18.9565 7.29712 18.6048 8.41597 17.9016 9.33235C17.2196 10.2274 16.3032 10.8242 15.1524 11.1225ZM7.09669 8.91678H9.84586C10.4852 8.91678 10.9541 8.78892 11.2524 8.53318C11.5721 8.27744 11.7319 7.88318 11.7319 7.3504C11.7319 6.7963 11.5721 6.39138 11.2524 6.13565C10.9541 5.8586 10.4852 5.72008 9.84586 5.72008H7.09669V8.91678ZM10.3254 17.0364C10.9647 17.0364 11.4336 16.9192 11.7319 16.6848C12.0516 16.429 12.2114 16.0241 12.2114 15.47C12.2114 14.3832 11.5827 13.8397 10.3254 13.8397H7.09669V17.0364H10.3254Z" fill="#F2F2F2"/>
<path d="M33.2328 22.7266L28.9811 14.6069H28.9492V22.7266H21.8525V0.0938721H32.4016C34.2344 0.0938721 35.8008 0.424198 37.1008 1.08485C38.4008 1.72419 39.3704 2.60861 40.0098 3.73812C40.6704 4.84631 41.0008 6.10368 41.0008 7.51023C41.0008 9.02334 40.5745 10.366 39.7221 11.5381C38.8909 12.7102 37.6869 13.552 36.1098 14.0635L41.0327 22.7266H33.2328ZM28.9492 9.8758H31.7623C32.4442 9.8758 32.9557 9.72662 33.2967 9.42826C33.6377 9.10859 33.8082 8.61842 33.8082 7.95777C33.8082 7.36105 33.627 6.8922 33.2647 6.55122C32.9238 6.21024 32.4229 6.03975 31.7623 6.03975H28.9492V9.8758Z" fill="#F2F2F2"/>
<path d="M75.0892 0.0938721V22.7266H67.9925V0.0938721H75.0892Z" fill="#F2F2F2"/>
<path d="M100 22.7266H92.9033L85.3911 11.3463V22.7266H78.2944V0.0938721H85.3911L92.9033 11.666V0.0938721H100V22.7266Z" fill="#F2F2F2"/>
<path d="M53.958 15.3558V13.3084V1.43321L51.5011 0L45.973 3.07116V12.6941L48.8394 14.3321V15.3558L44.9493 13.1036V5.93758L43.1066 7.37079V14.3321L51.7058 19.4507V20.4744L45.973 17.1985V19.4507L51.5011 22.7266L53.958 21.2934V16.3795L51.0916 14.9463V12.0799L48.0204 10.4419V4.50437L49.0441 3.89014V10.0325L51.0916 11.0562V2.86642L52.1153 2.25218V8.39451V14.5368L53.958 15.3558Z" fill="#F2F2F2"/>
<path d="M54.981 15.3558V13.3084V1.43321L57.4379 0L62.966 3.07116V12.6941L60.0996 14.3321V15.3558L63.9897 13.1036V5.93758L65.8324 7.37079V14.3321L57.2331 19.4507V20.4744L62.966 17.1985V19.4507L57.4379 22.7266L54.981 21.2934V16.3795L57.8474 14.9463V12.0799L60.9185 10.4419V4.50437L59.8948 3.89014V10.0325L57.8474 11.0562V2.86642L56.8237 2.25218V8.39451V14.5368L54.981 15.3558Z" fill="#F2F2F2"/>
</svg>
